<?xml version="1.0" standalone="no"?><!DOCTYPE svg PUBLIC "-//W3C//DTD SVG 1.1//EN" "http://www.w3.org/Graphics/SVG/1.1/DTD/svg11.dtd"><svg t="1670666736350" class="icon" viewBox="0 0 1024 1024" version="1.1" xmlns="http://www.w3.org/2000/svg" p-id="8122" xmlns:xlink="http://www.w3.org/1999/xlink" width="200" height="200"><path d="M522.566 199.116l238.996 195.911a30.001 30.001 0 0 0 42.22-4.182l37.548-45.806c38.451-46.908 31.572-116.354-15.336-154.806L710.737 95.755c-19.613-16.078-44.362-24.932-69.688-24.932-33.116 0-64.141 14.677-85.117 40.268l-37.548 45.806c-10.504 12.813-8.631 31.716 4.182 42.219zM875.648 889.363l-549.246-0.146 77.196-19.465a30.003 30.003 0 0 0 15.866-10.071l316.484-386.085a30.002 30.002 0 0 0-4.183-42.22L492.771 235.465c-12.813-10.503-31.717-8.63-42.22 4.183L134.066 625.732a29.997 29.997 0 0 0-6.762 17.534l-12.856 259.417c-0.151 3.053 0.172 6.07 0.916 8.96a29.997 29.997 0 0 0-0.952 7.517c-0.004 16.568 13.423 30.003 29.992 30.008l731.229 0.194h0.008c16.564 0 29.995-13.427 30-29.992 0.005-16.567-13.424-30.003-29.993-30.007z" fill="" p-id="8123"></path></svg>