<?xml version="1.0" standalone="no"?><!DOCTYPE svg PUBLIC "-//W3C//DTD SVG 1.1//EN" "http://www.w3.org/Graphics/SVG/1.1/DTD/svg11.dtd"><svg t="1670666519478" class="icon" viewBox="0 0 1024 1024" version="1.1" xmlns="http://www.w3.org/2000/svg" p-id="6428" xmlns:xlink="http://www.w3.org/1999/xlink" width="200" height="200"><path d="M525.312 923.648c0-89.088 69.632-163.84 157.696-171.008-25.6-26.624-41.984-62.464-41.984-102.4 0-80.896 65.536-145.408 145.408-145.408 18.432 0 35.84 3.072 52.224 9.216V224.256C837.632 145.408 774.144 81.92 695.296 81.92H145.408C66.56 81.92 3.072 145.408 3.072 224.256v599.04c0 78.848 63.488 142.336 142.336 142.336h421.888c-23.552 1.024-41.984-18.432-41.984-41.984zM194.56 307.2h452.608c25.6 0 47.104 20.48 47.104 47.104s-20.48 47.104-47.104 47.104H194.56c-25.6 0-47.104-20.48-47.104-47.104s20.48-47.104 47.104-47.104z m167.936 362.496H194.56c-25.6 0-47.104-20.48-47.104-47.104s20.48-47.104 47.104-47.104h168.96c25.6 0 47.104 20.48 47.104 47.104s-22.528 47.104-48.128 47.104z" p-id="6429"></path><path d="M796.672 653.312m-104.448 0a104.448 104.448 0 1 0 208.896 0 104.448 104.448 0 1 0-208.896 0Z" p-id="6430"></path><path d="M979.968 966.656H613.376c-18.432 0-33.792-15.36-33.792-33.792v-14.336c0-73.728 60.416-133.12 133.12-133.12H880.64c73.728 0 133.12 60.416 133.12 133.12v14.336c0 18.432-15.36 33.792-33.792 33.792z" p-id="6431"></path></svg>