<?xml version="1.0" standalone="no"?><!DOCTYPE svg PUBLIC "-//W3C//DTD SVG 1.1//EN" "http://www.w3.org/Graphics/SVG/1.1/DTD/svg11.dtd"><svg t="1670663105359" class="icon" viewBox="0 0 1024 1024" version="1.1" xmlns="http://www.w3.org/2000/svg" p-id="2809" xmlns:xlink="http://www.w3.org/1999/xlink" width="200" height="200"><path d="M512 0a512.128 512.128 0 0 1 510.122667 467.712 42.666667 42.666667 0 0 1-85.034667 7.296A426.837333 426.837333 0 0 0 512 85.333333C276.352 85.333333 85.333333 276.352 85.333333 512s191.018667 426.666667 426.666667 426.666667a42.666667 42.666667 0 0 1 0 85.333333C229.248 1024 0 794.752 0 512S229.248 0 512 0z" p-id="2810"></path><path d="M629.205333 270.592a42.666667 42.666667 0 0 1 67.498667 51.925333l-3.242667 4.266667-149.333333 170.666667a42.666667 42.666667 0 0 1-60.416 3.84l-3.84-3.84-149.333333-170.666667a42.666667 42.666667 0 0 1 60.458666-60.032l3.797334 3.84L512 404.48l117.205333-133.973333z" p-id="2811"></path><path d="M661.333333 426.666667a42.666667 42.666667 0 0 1 4.992 85.034666L661.333333 512h-298.666666a42.666667 42.666667 0 0 1-4.992-85.034667L362.666667 426.666667h298.666666zM608 597.333333c17.664 0 32 19.114667 32 42.666667 0 21.888-12.373333 39.936-28.288 42.368L608 682.666667h-192c-17.664 0-32-19.114667-32-42.666667 0-21.888 12.373333-39.936 28.288-42.368L416 597.333333h192z" p-id="2812"></path><path d="M512 426.666667a42.666667 42.666667 0 0 1 42.368 37.674666L554.666667 469.333333v256a42.666667 42.666667 0 0 1-85.034667 4.992L469.333333 725.333333v-256a42.666667 42.666667 0 0 1 42.666667-42.666666z" p-id="2813"></path><path d="M682.666667 597.333333m42.666666 0l256 0q42.666667 0 42.666667 42.666667l0 0q0 42.666667-42.666667 42.666667l-256 0q-42.666667 0-42.666666-42.666667l0 0q0-42.666667 42.666666-42.666667Z" p-id="2814"></path><path d="M682.666667 768m42.666666 0l256 0q42.666667 0 42.666667 42.666667l0 0q0 42.666667-42.666667 42.666666l-256 0q-42.666667 0-42.666666-42.666666l0 0q0-42.666667 42.666666-42.666667Z" p-id="2815"></path><path d="M682.666667 938.666667m42.666666 0l256 0q42.666667 0 42.666667 42.666666l0 0q0 42.666667-42.666667 42.666667l-256 0q-42.666667 0-42.666666-42.666667l0 0q0-42.666667 42.666666-42.666666Z" p-id="2816"></path></svg>